<svg width="115" height="60" viewBox="0 0 115 60" xmlns="http://www.w3.org/2000/svg">
    <path fill="#96a8bb" d="M18.1,25.5l-5.3-.5c1.7,2.2,3.1,4.3,3.1,4.3,0,0-11.1-.9-13.4-2.2-2.29-1.35-3.09-4.28-1.8-6.6.37-.67.93-1.23,1.6-1.6,0-.77.21-1.53.6-2.2,1.34-2.29,4.28-3.06,6.57-1.72.01,0,.02.01.03.02h0c2.3,1.3,8.6,10.5,8.6,10.5ZM2.4,32.8c-2.29,1.35-3.09,4.28-1.8,6.6.37.67.93,1.23,1.6,1.6,0,.77.21,1.53.6,2.2,1.34,2.29,4.28,3.06,6.57,1.72.01,0,.02-.01.03-.02h0c2.3-1.3,8.6-10.5,8.6-10.5l-5.3.5,3.1-4.3s-11.1.9-13.4,2.2ZM14.3,47.8c-.06,2.6,2,4.74,4.6,4.8.07,0,.13,0,.2,0,.76,0,1.51-.18,2.2-.5.69.32,1.44.49,2.2.5,2.52.06,4.64-1.88,4.8-4.4v-.4c0-2.6-4.8-12.7-4.8-12.7,0,0-1.1,2.3-2.2,4.9-1.1-2.6-2.2-4.9-2.2-4.9,0,0-4.8,10.1-4.8,12.7ZM33.3,45c2.28,1.36,5.22.61,6.58-1.67,0-.01.01-.02.02-.03h0c.39-.67.6-1.43.6-2.2,2.2-1.28,2.94-4.09,1.67-6.29-.02-.04-.04-.07-.07-.11-.38-.78-1.02-1.42-1.8-1.8-2.3-1.3-13.4-2.2-13.4-2.2,0,0,1.4,2.1,3.1,4.3l-5.3-.5s6.3,9.2,8.6,10.5ZM40.4,27.2c2.29-1.34,3.06-4.28,1.72-6.57,0-.01-.01-.02-.02-.03h0c-.39-.63-.9-1.17-1.5-1.6-.08-.77-.32-1.52-.7-2.2-1.19-2.23-3.96-3.08-6.2-1.9l-.3.2c-2.4,1.3-8.6,10.5-8.6,10.5l5.3-.5c-1.8,2.3-3.1,4.3-3.1,4.3,0,0,11-.9,13.4-2.2ZM28.4,12.2c.06-2.6-2-4.74-4.6-4.8,0,0,0,0,0,0h-.2c-.76,0-1.51.18-2.2.5-.66-.31-1.37-.48-2.1-.5-2.59-.11-4.79,1.9-4.9,4.5,0,.07,0,.14,0,.2h0c0,2.6,4.9,12.7,4.9,12.7l2.1-4.8,2.2,4.9s4.8-10.1,4.8-12.7ZM50.3,25.7l1.1-1.5,1.4.8,1.3.2c.42,0,.83-.11,1.2-.3.21.02.41-.1.5-.3,0-.1-.1-.2-.1-.3h0c0-.2,0-.4-.2-.5l-.8-.3-1.6-.2c-.69-.12-1.34-.39-1.9-.8-.4-.44-.61-1.01-.6-1.6-.02-.77.31-1.51.9-2,.74-.49,1.61-.73,2.5-.7.61,0,1.22.1,1.8.3l1.7.8-1.1,1.4c-.38-.3-.83-.5-1.3-.6-.41-.16-.86-.23-1.3-.2-.4,0-.7,0-.9.2-.29.1-.47.4-.4.7h0l.3.3.9.3,1.6.2c.67.06,1.31.34,1.8.8.47.4.72.99.7,1.6,0,.39-.1.77-.3,1.1l-.7.9-1.2.5c-.45.17-.92.24-1.4.2l-2.2-.1c-.61-.2-1.19-.5-1.7-.9ZM59.9,24.3v-4.1h-1.7v-1.8h1.7v-2.2l2.2-.5v2.7h2.3v1.8h-2.3v3.7c0,.4,0,.7.2.8.26.19.58.29.9.3h1.2v1.8h-1.7c-.74,0-1.47-.2-2.1-.6-.51-.49-.77-1.19-.7-1.9ZM68.2,26.8c-.8.08-1.6-.17-2.2-.7-.59-.41-.93-1.09-.9-1.8,0-.73.34-1.43.9-1.9.74-.49,1.61-.73,2.5-.7h1.1l1,.3v-.6c-.02-.42-.2-.81-.5-1.1-.35-.32-.83-.47-1.3-.4l-1.1.2-1.4.5-.8-1.6,1.9-.7,1.8-.2c.93-.05,1.85.24,2.6.8.64.59.97,1.44.9,2.3v5.4h-2.1v-.6l-1.1.6-1.3.2ZM67.2,24.2c.03.31.17.59.4.8.33.2.71.31,1.1.3l1-.2.9-.4v-1.2l-.9-.2h-.9c-.42,0-.83.11-1.2.3-.2.1-.3.4-.4.6ZM74.4,26.7v-8.3h2.2v.9c.26-.38.6-.69,1-.9l1.2-.2h.5l.4.2v1.9l-.5-.2h-.6c-.43.04-.84.18-1.2.4-.34.23-.61.54-.8.9v5.4l-2.2-.1ZM86.7,26.7v-.7c-.31.29-.69.5-1.1.6l-1.2.2c-.58,0-1.16-.1-1.7-.3l-1.3-.9c-.39-.4-.7-.88-.9-1.4-.28-.52-.42-1.11-.4-1.7-.02-.59.12-1.18.4-1.7.41-1,1.2-1.79,2.2-2.2.52-.28,1.11-.42,1.7-.4l1.2.2,1.1.5v-3.4l2.2-.5v11.7h-2.2ZM82.3,22.5c0,1.33,1.07,2.4,2.4,2.4h0c.38.04.76-.03,1.1-.2.36-.08.69-.3.9-.6v-3.2c-.21-.3-.54-.52-.9-.6l-1.1-.2c-1.33,0-2.4,1.07-2.4,2.4h0ZM98.1,25.6c-.43.48-.98.82-1.6,1-.58.17-1.19.23-1.8.2l-1.8-.3c-1.08-.37-1.93-1.22-2.3-2.3-.24-.54-.37-1.11-.4-1.7-.02-.59.12-1.18.4-1.7.21-.49.51-.93.9-1.3l1.3-1c.54-.2,1.12-.31,1.7-.3.59-.02,1.18.12,1.7.4.49.21.93.51,1.3.9.32.43.59.9.8,1.4.23.57.36,1.18.4,1.8v.6h-6.3c.18.48.49.89.9,1.2.44.31.96.49,1.5.5l1-.2.9-.5,1.4,1.3ZM94.5,20c-.48.01-.94.19-1.3.5-.41.29-.69.71-.8,1.2h4.1c-.11-.49-.39-.91-.8-1.2-.32-.32-.75-.5-1.2-.5ZM100,26.7v-8.3h2.2v.6c.31-.29.69-.5,1.1-.6l1.2-.2c1.71-.11,3.19,1.18,3.3,2.89,0,0,0,0,0,.01h0v5.6h-2.2v-4.9c.03-.44-.12-.87-.4-1.2-.36-.31-.82-.49-1.3-.5l-1,.2c-.3.11-.55.32-.7.6v5.8h-2.2ZM110.3,24.3v-4.1h-1.7v-1.8h1.7v-2.2l2.2-.5v2.7h2.4v1.8h-2.4v3.7c-.04.28.03.57.2.8.26.19.58.29.9.3h1.2v1.8h-1.7c-.74,0-1.47-.2-2.1-.6-.51-.49-.77-1.19-.7-1.9ZM53.7,42.8c-.74,0-1.47-.2-2.1-.6-.99-.7-1.23-2.08-.52-3.07,0-.01.02-.02.02-.03h0c.11-.21.29-.39.5-.5.7-.4,1.49-.6,2.3-.6h1.3l1.1.4v-1c.04-.55-.14-1.08-.5-1.5-.47-.32-1.03-.49-1.6-.5l-1.2.2-1.3.5-.5-.9,1.6-.6,1.5-.2c.82-.01,1.63.23,2.3.7.6.53.93,1.3.9,2.1v5.4h-1.2v-.8l-1.2.7c-.44.2-.92.31-1.4.3ZM51.9,40.4c.02.44.24.85.6,1.1.41.28.9.42,1.4.4l1.3-.2c.4-.17.77-.41,1.1-.7v-1.5c-.31-.27-.69-.44-1.1-.5l-1.2-.2c-.55-.04-1.08.14-1.5.5-.41.21-.65.64-.6,1.1ZM63.2,41.8c.42,0,.83-.11,1.2-.3.4-.17.77-.41,1.1-.7l.8.8c-.45.37-.96.67-1.5.9-.54.2-1.12.31-1.7.3-.55,0-1.09-.1-1.6-.3-.48-.18-.89-.49-1.2-.9-.41-.35-.72-.79-.9-1.3-.2-.51-.3-1.05-.3-1.6,0-.58.1-1.16.3-1.7.21-.49.51-.93.9-1.3l1.2-.9c.51-.2,1.05-.3,1.6-.3.58,0,1.16.1,1.7.3.55.25,1.06.59,1.5,1l-.8.8c-.33-.29-.7-.53-1.1-.7l-1.2-.3-1.2.2c-.36.15-.67.39-.9.7-.29.27-.5.62-.6,1-.41.75-.41,1.65,0,2.4.1.38.31.73.6,1l.9.6c.37.19.78.29,1.2.3ZM70.2,42.8c-.77,0-1.53-.21-2.2-.6-.5-.47-.79-1.12-.8-1.8-.03-.71.31-1.39.9-1.8.7-.4,1.49-.6,2.3-.6h1.3l1.1.4v-1c.02-.56-.2-1.11-.6-1.5-.46-.35-1.02-.53-1.6-.5l-1.2.2-1.3.5-.4-.9,1.6-.6,1.4-.2c.85-.03,1.7.22,2.4.7.51.58.8,1.33.8,2.1v5.4h-1.1v-.8l-1.2.7c-.44.2-.92.31-1.4.3ZM68.3,40.4c.02.44.24.85.6,1.1.45.28.97.42,1.5.4l1.3-.2,1.1-.7v-1.5l-1.1-.5-1.3-.2c-.54.01-1.06.19-1.5.5-.41.21-.65.64-.6,1.1ZM82.2,42.7v-.9l-1.2.8-1.4.2c-.55,0-1.09-.1-1.6-.3-1-.41-1.79-1.2-2.2-2.2-.2-.51-.3-1.05-.3-1.6,0-.58.1-1.16.3-1.7.21-.49.51-.93.9-1.3.4-.32.83-.59,1.3-.8.5-.24,1.05-.37,1.6-.4.45,0,.89.11,1.3.3.46.11.88.35,1.2.7v-4l1.2-.3v11.5h-1.1ZM76.7,38.7c.02.41.08.81.2,1.2.17.37.41.71.7,1,.21.3.54.52.9.6.37.19.78.29,1.2.3.48,0,.96-.1,1.4-.3.38-.21.71-.48,1-.8v-4c-.21-.39-.57-.68-1-.8-.44-.2-.92-.31-1.4-.3-.8-.03-1.57.3-2.1.9-.58.58-.9,1.38-.9,2.2ZM92.1,41.8l-1.4.8-1.6.2c-.55,0-1.09-.1-1.6-.3-1-.41-1.79-1.2-2.2-2.2-.4-1.03-.4-2.17,0-3.2.21-.5.48-.97.8-1.4.4-.32.83-.59,1.3-.8.47-.23.98-.36,1.5-.4.53-.01,1.05.13,1.5.4l1.2.8c.36.41.63.88.8,1.4.2.51.3,1.05.3,1.6v.3h-6.6c.11.76.46,1.46,1,2,.55.49,1.26.77,2,.8l1.3-.2,1-.5.7.7ZM88.9,35.6c-.67-.03-1.32.22-1.8.7-.49.48-.81,1.12-.9,1.8h5.3c-.09-.68-.41-1.32-.9-1.8-.44-.47-1.06-.73-1.7-.7ZM94.4,42.7v-8h1.1v.9c.3-.35.67-.63,1.1-.8.4-.2.85-.31,1.3-.3.53-.02,1.05.12,1.5.4.43.27.78.65,1,1.1.33-.44.73-.81,1.2-1.1.48-.29,1.04-.42,1.6-.4.8-.03,1.57.3,2.1.9.51.62.79,1.4.8,2.2v5.1h-1.1v-4.8c0-.62-.21-1.22-.6-1.7-.39-.4-.94-.62-1.5-.6-.42,0-.83.11-1.2.3-.43.23-.77.57-1,1,.07.08.11.19.1.3v5.5h-1.1v-4.8c0-.62-.21-1.22-.6-1.7-.39-.4-.94-.62-1.5-.6l-1.2.2c-.35.25-.65.55-.9.9v6h-1.1ZM109.8,43.7l.5-1-3.3-8h1.3l2.6,6.5,2.8-6.5h1.3l-4,9.2c-.23.64-.61,1.22-1.1,1.7-.47.32-1.03.49-1.6.5h-.8v-1.2h.7c.32,0,.64-.11.9-.3.34-.2.59-.52.7-.9Z" />
</svg>
