<svg version="1.2" xmlns="http://www.w3.org/2000/svg" viewBox="0 0 22 24" width="22" height="24"><style>.a{fill:#ced0d4}</style><path class="a" d="m17.1 15.4c-1.1 0-2.1 0.5-2.8 1.3q-0.2 0.1-0.4 0.4l-5.8-3.6q0.2-0.6 0.2-1.3 0-0.6-0.2-1.2l5.8-3.6c0.8 1 1.9 1.6 3.2 1.6 2.3 0 4.1-1.8 4.1-4.1 0-2.3-1.8-4.2-4.1-4.2-2.2 0-4 1.9-4 4.2q0 0.6 0.1 1.2l-5.8 3.6c-0.8-1-1.9-1.6-3.2-1.6-2.2 0-4 1.8-4 4.1 0 2.3 1.8 4.2 4 4.2 1.3 0 2.4-0.6 3.2-1.6l5.8 3.6q-0.1 0.6-0.1 1.2c0 1.1 0.4 2.1 1.2 2.9 0.7 0.8 1.7 1.2 2.8 1.2 1.1 0 2.1-0.4 2.9-1.2 0.7-0.8 1.2-1.8 1.2-2.9 0-1.1-0.5-2.2-1.2-2.9-0.8-0.8-1.8-1.3-2.9-1.3z"/></svg>